<mxfile host="app.diagrams.net" agent="Mozilla/5.0 (Macintosh; Intel Mac OS X 10_15_7) AppleWebKit/537.36 (KHTML, like Gecko) Chrome/114.0.0.0 Safari/537.36" version="24.9.1">
  <diagram name="第 1 页" id="x1P3Ogy-JfWMH--vFfOm">
    <mxGraphModel dx="954" dy="591" grid="1" gridSize="10" guides="1" tooltips="1" connect="1" arrows="1" fold="1" page="1" pageScale="1" pageWidth="827" pageHeight="1169" math="0" shadow="0">
      <root>
        <mxCell id="0" />
        <mxCell id="1" parent="0" />
        <mxCell id="oqYsNQT4M92ut37mKfUW-1" value="" style="rounded=1;whiteSpace=wrap;html=1;" vertex="1" parent="1">
          <mxGeometry x="130" y="160" width="120" height="70" as="geometry" />
        </mxCell>
        <mxCell id="oqYsNQT4M92ut37mKfUW-2" value="" style="rounded=1;whiteSpace=wrap;html=1;" vertex="1" parent="1">
          <mxGeometry x="350" y="160" width="120" height="70" as="geometry" />
        </mxCell>
        <mxCell id="oqYsNQT4M92ut37mKfUW-3" value="" style="rounded=1;whiteSpace=wrap;html=1;" vertex="1" parent="1">
          <mxGeometry x="570" y="160" width="120" height="70" as="geometry" />
        </mxCell>
        <mxCell id="oqYsNQT4M92ut37mKfUW-4" value="ovn-cluster" style="text;html=1;align=center;verticalAlign=middle;resizable=0;points=[];autosize=1;strokeColor=none;fillColor=none;" vertex="1" parent="1">
          <mxGeometry x="150" y="118" width="80" height="30" as="geometry" />
        </mxCell>
        <mxCell id="oqYsNQT4M92ut37mKfUW-5" value="vpc1 / ns1" style="text;html=1;align=center;verticalAlign=middle;resizable=0;points=[];autosize=1;strokeColor=none;fillColor=none;" vertex="1" parent="1">
          <mxGeometry x="365" y="118" width="80" height="30" as="geometry" />
        </mxCell>
        <mxCell id="oqYsNQT4M92ut37mKfUW-6" value="vpc2 / ns2" style="text;html=1;align=center;verticalAlign=middle;resizable=0;points=[];autosize=1;strokeColor=none;fillColor=none;" vertex="1" parent="1">
          <mxGeometry x="580" y="118" width="80" height="30" as="geometry" />
        </mxCell>
        <mxCell id="oqYsNQT4M92ut37mKfUW-8" value="" style="rounded=0;whiteSpace=wrap;html=1;" vertex="1" parent="1">
          <mxGeometry x="10" y="300" width="80" height="60" as="geometry" />
        </mxCell>
        <mxCell id="oqYsNQT4M92ut37mKfUW-9" value="" style="rounded=0;whiteSpace=wrap;html=1;" vertex="1" parent="1">
          <mxGeometry x="120" y="300" width="80" height="60" as="geometry" />
        </mxCell>
        <mxCell id="oqYsNQT4M92ut37mKfUW-10" value="" style="rounded=0;whiteSpace=wrap;html=1;" vertex="1" parent="1">
          <mxGeometry x="230" y="300" width="80" height="60" as="geometry" />
        </mxCell>
        <mxCell id="oqYsNQT4M92ut37mKfUW-11" value="" style="rounded=0;whiteSpace=wrap;html=1;" vertex="1" parent="1">
          <mxGeometry x="590" y="290" width="80" height="60" as="geometry" />
        </mxCell>
      </root>
    </mxGraphModel>
  </diagram>
</mxfile>
